<svg xmlns="http://www.w3.org/2000/svg" viewBox="0 0 472.16 213.76"><circle cx="3.52" cy="210.24" r="3.52" style="fill:#70c217"/><circle cx="3.52" cy="158.56" r="3.52" style="fill:#70c217"/><circle cx="3.52" cy="106.88" r="3.52" style="fill:#70c217"/><circle cx="3.52" cy="55.2" r="3.52" style="fill:#70c217"/><circle cx="3.52" cy="3.52" r="3.52" style="fill:#70c217"/><circle cx="55.2" cy="210.24" r="3.52" style="fill:#70c217"/><circle cx="55.2" cy="158.56" r="3.52" style="fill:#70c217"/><circle cx="55.2" cy="106.88" r="3.52" style="fill:#70c217"/><circle cx="55.2" cy="55.2" r="3.52" style="fill:#70c217"/><circle cx="55.2" cy="3.52" r="3.52" style="fill:#70c217"/><circle cx="106.88" cy="210.24" r="3.52" style="fill:#70c217"/><circle cx="106.88" cy="158.56" r="3.52" style="fill:#70c217"/><circle cx="106.88" cy="106.88" r="3.52" style="fill:#70c217"/><circle cx="106.88" cy="55.2" r="3.52" style="fill:#70c217"/><circle cx="106.88" cy="3.52" r="3.52" style="fill:#70c217"/><circle cx="158.56" cy="210.24" r="3.52" style="fill:#70c217"/><circle cx="158.56" cy="158.56" r="3.52" style="fill:#70c217"/><circle cx="158.56" cy="106.88" r="3.52" style="fill:#70c217"/><circle cx="158.56" cy="55.2" r="3.52" style="fill:#70c217"/><circle cx="158.56" cy="3.52" r="3.52" style="fill:#70c217"/><circle cx="210.24" cy="210.24" r="3.52" style="fill:#70c217"/><circle cx="210.24" cy="158.56" r="3.52" style="fill:#70c217"/><circle cx="210.24" cy="106.88" r="3.52" style="fill:#70c217"/><circle cx="210.24" cy="55.2" r="3.52" style="fill:#70c217"/><circle cx="210.24" cy="3.52" r="3.52" style="fill:#70c217"/><circle cx="261.92" cy="210.24" r="3.52" style="fill:#70c217"/><circle cx="261.92" cy="158.56" r="3.52" style="fill:#70c217"/><circle cx="261.92" cy="106.88" r="3.52" style="fill:#70c217"/><circle cx="261.92" cy="55.2" r="3.52" style="fill:#70c217"/><circle cx="261.92" cy="3.52" r="3.52" style="fill:#70c217"/><circle cx="313.6" cy="210.24" r="3.52" style="fill:#70c217"/><circle cx="313.6" cy="158.56" r="3.52" style="fill:#70c217"/><circle cx="313.6" cy="106.88" r="3.52" style="fill:#70c217"/><circle cx="313.6" cy="55.2" r="3.52" style="fill:#70c217"/><circle cx="313.6" cy="3.52" r="3.52" style="fill:#70c217"/><circle cx="365.28" cy="210.24" r="3.52" style="fill:#70c217"/><circle cx="365.28" cy="158.56" r="3.52" style="fill:#70c217"/><circle cx="365.28" cy="106.88" r="3.52" style="fill:#70c217"/><circle cx="365.28" cy="55.2" r="3.52" style="fill:#70c217"/><circle cx="365.28" cy="3.52" r="3.52" style="fill:#70c217"/><circle cx="416.96" cy="210.24" r="3.52" style="fill:#70c217"/><circle cx="416.96" cy="158.56" r="3.52" style="fill:#70c217"/><circle cx="416.96" cy="106.88" r="3.52" style="fill:#70c217"/><circle cx="416.96" cy="55.2" r="3.52" style="fill:#70c217"/><circle cx="416.96" cy="3.52" r="3.52" style="fill:#70c217"/><circle cx="468.64" cy="210.24" r="3.52" style="fill:#70c217"/><circle cx="468.64" cy="158.56" r="3.52" style="fill:#70c217"/><circle cx="468.64" cy="106.88" r="3.52" style="fill:#70c217"/><circle cx="468.64" cy="55.2" r="3.52" style="fill:#70c217"/><circle cx="468.64" cy="3.52" r="3.52" style="fill:#70c217"/></svg>