<svg xmlns="http://www.w3.org/2000/svg" viewBox="0 0 213.76 472.16"><circle cx="210.24" cy="468.64" r="3.52" style="fill:#70c217"/><circle cx="158.56" cy="468.64" r="3.52" style="fill:#70c217"/><circle cx="106.88" cy="468.64" r="3.52" style="fill:#70c217"/><circle cx="55.2" cy="468.64" r="3.52" style="fill:#70c217"/><circle cx="317.49" cy="530.42" r="3.52" transform="translate(-315.57 -60.82) rotate(-0.17)" style="fill:#70c217"/><circle cx="210.24" cy="416.96" r="3.52" style="fill:#70c217"/><circle cx="158.56" cy="416.96" r="3.52" style="fill:#70c217"/><circle cx="106.88" cy="416.96" r="3.52" style="fill:#70c217"/><circle cx="55.2" cy="416.96" r="3.52" style="fill:#70c217"/><circle cx="317.49" cy="478.74" r="3.52" transform="translate(-315.42 -60.82) rotate(-0.17)" style="fill:#70c217"/><circle cx="210.24" cy="365.28" r="3.52" style="fill:#70c217"/><circle cx="158.56" cy="365.28" r="3.52" style="fill:#70c217"/><circle cx="106.88" cy="365.28" r="3.52" style="fill:#70c217"/><circle cx="55.2" cy="365.28" r="3.52" style="fill:#70c217"/><circle cx="317.49" cy="427.06" r="3.52" transform="translate(-315.26 -60.82) rotate(-0.17)" style="fill:#70c217"/><circle cx="210.24" cy="313.6" r="3.52" style="fill:#70c217"/><circle cx="158.56" cy="313.6" r="3.52" style="fill:#70c217"/><circle cx="106.88" cy="313.6" r="3.52" style="fill:#70c217"/><circle cx="55.2" cy="313.6" r="3.52" style="fill:#70c217"/><circle cx="317.49" cy="375.38" r="3.52" transform="translate(-315.1 -60.82) rotate(-0.17)" style="fill:#70c217"/><circle cx="210.24" cy="261.92" r="3.52" style="fill:#70c217"/><circle cx="158.56" cy="261.92" r="3.52" style="fill:#70c217"/><circle cx="106.88" cy="261.92" r="3.52" style="fill:#70c217"/><circle cx="55.2" cy="261.92" r="3.52" style="fill:#70c217"/><circle cx="317.49" cy="323.71" r="3.52" transform="translate(-314.95 -60.82) rotate(-0.17)" style="fill:#70c217"/><circle cx="210.24" cy="210.24" r="3.52" style="fill:#70c217"/><circle cx="158.56" cy="210.24" r="3.52" style="fill:#70c217"/><circle cx="106.88" cy="210.24" r="3.52" style="fill:#70c217"/><circle cx="55.2" cy="210.24" r="3.52" style="fill:#70c217"/><circle cx="3.52" cy="210.24" r="3.52" style="fill:#70c217"/><circle cx="210.24" cy="158.56" r="3.52" style="fill:#70c217"/><circle cx="158.56" cy="158.56" r="3.52" style="fill:#70c217"/><circle cx="106.88" cy="158.56" r="3.52" style="fill:#70c217"/><circle cx="55.2" cy="158.56" r="3.52" style="fill:#70c217"/><circle cx="3.52" cy="158.56" r="3.52" style="fill:#70c217"/><circle cx="210.24" cy="106.88" r="3.52" style="fill:#70c217"/><circle cx="158.56" cy="106.88" r="3.52" style="fill:#70c217"/><circle cx="106.88" cy="106.88" r="3.52" style="fill:#70c217"/><circle cx="55.2" cy="106.88" r="3.52" style="fill:#70c217"/><circle cx="3.52" cy="106.88" r="3.52" style="fill:#70c217"/><circle cx="210.24" cy="55.2" r="3.52" style="fill:#70c217"/><circle cx="158.56" cy="55.2" r="3.52" style="fill:#70c217"/><circle cx="106.88" cy="55.2" r="3.52" style="fill:#70c217"/><circle cx="55.2" cy="55.2" r="3.52" style="fill:#70c217"/><circle cx="3.52" cy="55.2" r="3.52" style="fill:#70c217"/><circle cx="210.24" cy="3.52" r="3.52" style="fill:#70c217"/><circle cx="158.56" cy="3.52" r="3.52" style="fill:#70c217"/><circle cx="106.88" cy="3.52" r="3.52" style="fill:#70c217"/><circle cx="55.2" cy="3.52" r="3.52" style="fill:#70c217"/><circle cx="3.52" cy="3.52" r="3.52" style="fill:#70c217"/></svg>