<svg xmlns="http://www.w3.org/2000/svg" viewBox="0 0 1023.84 343.81"><path d="M634.94,239.46l38.76-.06c0,37,.07,74-.06,110.93,0,4.11,1.1,5.48,5.31,5.36,9.82-.29,19.65-.14,29.48-.05,2.7,0,4.42-.37,4.35-3.73-.17-8.16.6-16.39-.23-24.47-1.43-13.81-.35-27.6-.8-41.38-.06-2.15-.41-4.41,3-4.5,5.63-.15,11.25-.59,16.88-.91a98.66,98.66,0,0,0,28-.06c6,0,12,.33,18,0,4.74-.3,6.25,1.11,6.18,6-.27,19.8-.06,39.61-.17,59.41,0,3.3.72,4.92,4.42,4.71a137,137,0,0,1,14.47,0c3.38.15,4.31-1.25,4.22-4.4-.18-6,.15-12-.12-18-.18-3.8,1.19-4.81,4.86-4.78,17.31.17,34.62.2,51.93,0,4.16-.05,5.37,1.18,5.33,5.33-.18,15.78-1.52,31.53-1.19,47.33.09,4.5,1.41,5.55,5.7,5.51,22.14-.21,44.27-.1,66.41-.1v139c-49.21,0-979.91,0-1023.84,0v-139c12.49,0,25-.1,37.47.07,3.49,0,4.64-1.06,4.58-4.56-.19-10.33,0-20.66-.13-31-.06-3.44,1-4.69,4.53-4.61,9.15.21,18.32.06,27.48.06,5.67,0,8,2.25,6.8,7.73-1,4.66-.33,9.29-.75,13.9-.34,3.66,1.29,4.59,4.65,4.45a122.71,122.71,0,0,1,14.48,0c4.17.3,5-1.43,5-5.2-.17-18.15.06-36.31-.21-54.46-.06-4.52,1.37-5.6,5.69-5.53q21.23.39,42.46,0c4-.06,5.11,1.23,5,5.12-.21,12.82,0,25.65-.15,38.47,0,3.55,1.15,4.64,4.6,4.53,7-.21,14-.23,21,0,3.56.12,4.55-1.18,4.51-4.61-.16-13.15.4-26.33-.2-39.46-.65-14.13-.72-28.25-.88-42.37,0-3.39.86-4.87,4.48-4.64,4.14.27,8.35-.24,12.48.14,4.71.42,6.26-1.06,6.21-6-.23-25.65-.08-51.3-.07-76.94,2.64.41,1.71,2.51,1.71,4q0,32.49-.06,65a87.92,87.92,0,0,1-.68,9.44c-.39,3.44.87,4.65,4.44,4.55,8.82-.24,17.66-.08,26.48-.09,9.17,0,18.34.24,27.49-.06,4.31-.14,5.73,1,5.68,5.52-.24,22.16,0,44.32-.21,66.47,0,3.86.95,5.34,5,5.15,6.82-.32,13.67-.32,20.49,0,4.51.2,5.69-1.61,5.63-5.86-.19-14.65.08-29.32-.16-44-.07-4.25,1.32-5.36,5.4-5.28q17.74.36,35.49,0c4.21-.09,5.36,1.29,5.3,5.39-.22,14.66-.11,29.32-.07,44,0,1.55-.75,4,1.32,4.34,4.41.78,9.31,1.44,13.3-.2,3.09-1.28.8-5.32.45-8.15a20.65,20.65,0,0,1-.08-2.49c0-25.66.07-51.32-.14-77,0-4.27,1.66-4.9,5.3-4.87,15.33.16,30.65.07,46,.08,6.84,0,6.84,0,6.84,6.67q0,28.74,0,57.47c0,2.25-.63,4.86,3.17,4.84,11.66-.08,23.32,0,35,0,1.78,0,2.69-.51,2.48-2.67-1.4-15.12-.23-30.27-.65-45.41-.08-2.67.69-3.94,3.63-3.92q21,.15,42,0c3.23,0,4.46,1.32,4.38,4.49q-.27,11.72-.79,23.4c-.66,14.46-.12,29-.27,43.47,0,3.35.8,4.72,4.45,4.68q22.49-.25,45,0c3.88,0,4.75-1.35,4.71-4.94-.17-14.83.07-29.66-.16-44.48-.07-4.19.8-5.83,5.44-5.77q29.49.4,59,0c4.86-.07,5.75,1.66,5.71,6-.19,21.65-.08,43.31-.08,65,0,12.41,0,12.25,12.34,12.25,3.88,0,4.76-1.38,4.71-5-.17-13,.12-26-.17-39-.11-4.64,1-6.59,6-6.24,6.13.43,12.34-.22,18.48.21,4.81.33,5.68-1.54,5.77-6,.44-21.14-1.51-42.23-1.19-63.37.06-3.65,1-4.95,4.78-4.88C613.94,239.72,624.44,239.51,634.94,239.46Z" transform="translate(84.14 -176.76)" style="fill:#36759a"/></svg>