<svg xmlns="http://www.w3.org/2000/svg" viewBox="0 0 988.62 569.15"><path d="M657,520.57H178.56q-.15-74.93.44-150.8.09-11.52.2-23c2.8-1.45,1.55-4.88,1.55-7.38q.13-50.07,0-100.15c0-7.2,2-7.75,9.92-6.3a114.66,114.66,0,0,0,41.79-.2c8.21-1.53,9.54.33,9.52,7.76,0,7.74-1.14,15.63.74,23.26,0,16.46.21,32.92,0,49.38-.07,6.12,1.41,7.39,6.59,6.72a111.49,111.49,0,0,1,28.45.07c5.25.66,6.18-1.45,6.16-7.31-.11-54.4,0-108.79-.17-163.19,0-6.74,1.07-8.92,6-8.84,22.65.38,45.31.29,68,0,3.88,0,5.14,1.39,5.1,7.17-.2,33.63,0,67.28-.24,100.91-.06,6.8,1.45,8.39,5.92,8.24,11.81-.42,23.64-.15,35.47-.15,6.83,0,6.83,0,6.83,10.16,0,17.9.09,35.79-.08,53.68-.06,5.36,1.14,7.09,5.45,6.41a44.68,44.68,0,0,1,12.91,0c4.39.59,5.89-1,5.73-7.07-.5-19.51-.75-39-.91-58.58-.15-18.13,0-36.26-.13-54.39,0-4.63.94-6.44,4.25-6.18,3.48.28,7.91,1.69,10.23-.72s.28-9.17.64-14c1.7-22.36.52-44.79.7-67.18.05-5.35,1.09-7.57,4.82-6.78,4,.85,5.36-2.11,5.28-7.4-.08-5.73.14-11.47-.05-17.18-.15-4.37,1-5.71,4-5.79,9-.26,8.66-.47,9.26-13.68,1.41-31.54,3.16-63.06,4.69-94.6.33-6.86.09-13.79,1.81-22,2.05,7.81,1.9,14.89,2.2,21.6,1.58,34.65,2.84,69.34,4,104,.16,4.56,1.74,4.76,4.15,4.83,9.08.28,9.08.36,9.84,13.25.38,14.62-.74,16.89,10.2,17.05q0,41.27,0,82.54c0,2.08-.35,4.32.9,6l.08.19c1,4.39,3.66,2.78,5.5,2.53,4.42-.59,5.64,1.69,5.61,8-.18,46.19-.11,92.38-.06,138.57,0,2.74-.7,5.75.89,8.19,2.48,2.91,5.43,1.51,8.09,1.33,6.33-.41,12.77,1.87,19-1.31,1.53-2.16.91-4.93.92-7.44,0-17.32.14-34.65,0-52-.05-5,1.08-6.6,4.55-6.51,10.44.26,20.88.14,31.32.06,1.76,0,3.69.85,5.19-1.36,0-25.74.1-51.49-.14-77.23,0-6.1,1.33-7.56,5.39-7.5,18.13.26,36.28.33,54.41-.1,2.2,0,3.53.44,4.33,1.61,1.5,2.18,1.15,5.89,1.1,6.59C656.39,221.12,656.53,345.61,657,520.57Z" transform="translate(99.54 48.46)" style="fill:#488db1"/><path d="M889.08,248.87V520.56c0,.29-193.89,0-210.28,0l-.06-123.15,1.1.12c.87,1.42,2.06,1.26,3.21,1.26h59.06c1.31,0,2.69.27,3.62-1.52-.17-27.56-1.3-55.08-1-82.65.06-5.5,1.08-7.21,5.06-7.12,13.49.33,27,.27,40.48,0,3.48-.06,4.72,1.42,4.55,6.35-.24,7.47.05,15-.1,22.44-.08,4,1,5.26,3.81,5.2,8.49-.18,17-.43,25.48.07,4.89.29,7.71-1.14,6.87-8.88.1-.11.29-.26.28-.31a5.28,5.28,0,0,0-.28-.79q0-10,0-20c1.44-2.19.82-4.89.83-7.36.06-15.85.16-31.71,0-47.56-.07-5.24,1.12-6.82,4.83-6.75,9,.15,32.53,1.21,43.86.06A86,86,0,0,0,889.08,248.87Z" transform="translate(99.54 48.46)" style="fill:#488db1"/><path d="M-99.54,248.87V520.56c0,.29,193.89,0,210.27,0q0-61.57.07-123.15l-1.1.12c-.87,1.42-2.06,1.26-3.21,1.26H47.42c-1.3,0-2.69.27-3.62-1.52.17-27.56,1.3-55.08,1-82.65,0-5.5-1.08-7.21-5.06-7.12-13.49.33-27,.27-40.47,0-3.48-.06-4.72,1.42-4.56,6.35.25,7.47,0,15,.11,22.44.08,4-1,5.26-3.81,5.2-8.5-.18-17-.43-25.49.07-4.88.29-7.7-1.14-6.87-8.88-.09-.11-.29-.26-.27-.31a5.28,5.28,0,0,1,.28-.79q0-10,0-20c-1.44-2.19-.81-4.89-.82-7.36-.06-15.85-.17-31.71,0-47.56.07-5.24-1.12-6.82-4.83-6.75-9,.15-32.53,1.21-43.86.06A85.62,85.62,0,0,1-99.54,248.87Z" transform="translate(99.54 48.46)" style="fill:#488db1"/></svg>